inDegrees=no
num_controls=7
num_derivatives=13
num_iterations=100
num_multipliers=7
num_parameters=0
num_slacks=7
num_states=26
objective=0.237235
objective_accelerations=0.000000
objective_balance=0.002131
objective_effort=0.066477
objective_height=0.168627
objective_ligament=0.000000
solver_duration=1295.385379
status=Solve_Succeeded
success=true
DataType=double
version=3
OpenSimVersion=4.5
endheader
time	/jointset/ground_pelvis/pelvis_tilt/value	/jointset/ground_pelvis/pelvis_tx/value	/jointset/ground_pelvis/pelvis_ty/value	/jointset/hip_l/hip_flexion_l/value	/jointset/hip_l/hip_adduction_l/value	/jointset/hip_l/hip_rotation_l/value	/jointset/back/lumbar_extension/value	/jointset/patellofemoral_l/patellar_flexion_l/value	/jointset/knee_l/knee_flexion_l/value	/jointset/knee_l/knee_adduction_l/value	/jointset/knee_l/knee_rotation_l/value	/jointset/ankle_l/ankle_angle_l/value	/jointset/subtalar_l/subtalar_angle_l/value	/jointset/ground_pelvis/pelvis_tilt/speed	/jointset/ground_pelvis/pelvis_tx/speed	/jointset/ground_pelvis/pelvis_ty/speed	/jointset/hip_l/hip_flexion_l/speed	/jointset/hip_l/hip_adduction_l/speed	/jointset/hip_l/hip_rotation_l/speed	/jointset/back/lumbar_extension/speed	/jointset/patellofemoral_l/patellar_flexion_l/speed	/jointset/knee_l/knee_flexion_l/speed	/jointset/knee_l/knee_adduction_l/speed	/jointset/knee_l/knee_rotation_l/speed	/jointset/ankle_l/ankle_angle_l/speed	/jointset/subtalar_l/subtalar_angle_l/speed	/forceset/tau_hip_flexion_l	/forceset/tau_hip_adduction_l	/forceset/tau_hip_rotation_l	/forceset/tau_knee_flexion_l	/forceset/tau_ankle_angle_l	/forceset/tau_subtalar_angle_l	/forceset/tau_lumbar_extension	lambda_cid13_p0	lambda_cid13_p1	lambda_cid13_p2	lambda_cid13_p3	lambda_cid13_p4	lambda_cid13_p5	lambda_cid14_p0	/jointset/ground_pelvis/pelvis_tilt/accel	/jointset/ground_pelvis/pelvis_tx/accel	/jointset/ground_pelvis/pelvis_ty/accel	/jointset/hip_l/hip_flexion_l/accel	/jointset/hip_l/hip_adduction_l/accel	/jointset/hip_l/hip_rotation_l/accel	/jointset/back/lumbar_extension/accel	/jointset/patellofemoral_l/patellar_flexion_l/accel	/jointset/knee_l/knee_flexion_l/accel	/jointset/knee_l/knee_adduction_l/accel	/jointset/knee_l/knee_rotation_l/accel	/jointset/ankle_l/ankle_angle_l/accel	/jointset/subtalar_l/subtalar_angle_l/accel	gamma_cid13_p0	gamma_cid13_p1	gamma_cid13_p2	gamma_cid13_p3	gamma_cid13_p4	gamma_cid13_p5	gamma_cid14_p0
0.5	-0.1060114882924791	-0.06714303072933904	0.421076649862945	2.094383174971633	-0.2966289796216248	0.1225112910693885	-0.9201558559083767	2.094237185927253	2.094237185927256	0.1745005138058172	-0.1743968439136392	0.2539994680541863	0.09414085188127232	0.2232637707459179	-0.07370262636431769	-0.03448212986678232	0.00449858757925327	0.02475845651490943	0.02557437691365842	-0.9648559420667903	0.02907036305625934	0.02907036305625759	-0.006634595506568421	-0.004530376517191214	-0.2061898796394822	-0.06500424646638429	-0.4574686551746366	-0.06164233149409568	-0.0608650546088839	-0.3907717320130914	0.1555181279575964	-0.009368404026062845	0.5525262179704485	-8.021200710056409	15.63642971433151	-14.55608957330321	-56.68446330085465	-911.6562953182284	-9.625771903224097	-0.02073983774995846	-5.567188061563677	1.419942094458872	1.656538767298065	-2.452164905166532	-1.00783275907888	0.4496200240197888	13.14043102776543	-3.2806424637095	-3.280642463708048	-2.036170598748316	-1.129852873219613	4.790956283818277	0.9452939635066899	1.866136090830342e-07	-7.418629304843467e-07	9.417310757248387e-07	-8.802810319786486e-07	-1.408290985737605e-07	-6.710997255072279e-07	-8.908109876668527e-08
0.51	-0.1040573611015221	-0.06780652275360689	0.4208044262380172	2.094336416764851	-0.2964201223757848	0.1227790137214962	-0.9291397538438718	2.094392410120378	2.09439241012037	0.1743595448078753	-0.1744736750213964	0.252175948374168	0.09355281413056347	0.1674646564047217	-0.05872033848581638	-0.02100776112694982	-0.01062174811686639	0.0181185381418443	0.0268402690898421	-0.8309934158192668	0.004855102562708364	0.004855102562711299	-0.01879950312113204	-0.008429807495624039	-0.1586650040411775	-0.05122973245936951	-0.4443548526046875	-0.06082241490717565	-0.06062846201768425	-0.3670402152114564	0.1548533599311145	-0.008615725032329602	0.5413713083964965	-5.945365527096042	14.65512976538519	-14.06731432105885	-63.75709553334799	-881.5836449817187	-6.217421452681916	-0.02081313584207186	-5.600828491256478	1.578458733359655	1.036052247650934	-0.5576829899788494	-0.3264338914464164	-0.2043518872254745	13.64869780519132	-1.559884166699319	-1.559884166699525	-0.392640732261024	0.3409275508779966	4.710648830746015	1.799658351099115	2.308066162357305e-07	-4.045775701026241e-07	1.134952081400706e-07	-8.206401932458922e-07	-1.707975195363795e-07	-1.361563552166477e-06	2.042327056630985e-08
0.52	-0.102664136128149	-0.06831197457932693	0.4206355795645527	2.094235312183479	-0.296244536816681	0.1230255101550368	-0.9367571196405026	2.094391898443662	2.094391898443658	0.1741797287558966	-0.1745173172867316	0.2508231565767147	0.09314374716628485	0.1110833272291694	-0.04209458665475711	-0.013806739574124	-0.006370687338753077	0.01810411916773561	0.02132913320030043	-0.6915495142939235	-0.002076810911699604	-0.002076810911699484	-0.0144040063137212	0.002107391967267718	-0.1120443031264944	-0.02921008918034494	-0.4312410500347385	-0.06000249832025555	-0.06039186942648464	-0.3433086984098217	0.1541885919046326	-0.00786304603859626	0.5302163988225447	-3.850531218388406	13.6837748843132	-13.59527778705052	-71.26346248265845	-851.4597327068653	-2.738270294539544	-0.02090191733641167	-5.683631028434883	1.748634884970462	0.4018693298967276	1.422114389680066	0.3172671207124086	-0.905785589125286	14.2567060833294	0.1760269401190982	0.1760269401190487	1.275910285646577	1.757473215045305	4.610121347093972	2.594319817908652	6.214585812563285e-08	8.084429772654132e-07	-6.271534511129398e-07	-1.612430063419078e-07	7.790404444694337e-08	1.220305165488769e-06	-4.310815014209384e-08
0.53	-0.1018145875039456	-0.06864837646230421	0.4205193749911232	2.094225931347546	-0.2960663767286931	0.1231786443106692	-0.9429983034556448	2.094377814049536	2.094377814049539	0.1741011255273496	-0.1744362958447902	0.2499250560874553	0.09295316197749509	0.06098420414358786	-0.02545687546843057	-0.009277357170002316	0.002968522293913525	0.01560830919746525	0.00826782143339091	-0.5603356394086725	-0.0009486310003772412	-0.0009486310003775785	-0.001597445894301832	0.0110608306681086	-0.068396464873702	-0.01177964287986158	-0.4223094721049317	-0.05761869613952068	-0.06060522045139904	-0.3423115507250551	0.1473901844461505	-0.008890435209837847	0.515722523194488	-5.68936563036124	14.48834654259031	-13.76513741805799	-62.7890362271441	-839.8746282356327	-1.511778518257865	-0.02107680123989246	-4.349418950486313	1.580713427728481	0.5020370939493431	0.4608878340212292	-0.8206303380758924	-1.660782653483443	12.00646959000518	0.04994434934845077	0.04994434934841525	1.240964642281534	0.008748560932759008	4.119028976857035	0.8863988498337201	-7.514926174919125e-08	7.037458011899415e-07	-4.666532234947667e-07	1.242699784262643e-07	2.320196683458069e-07	1.283812688034107e-06	-7.239715968521113e-08
0.54	-0.1014013033109713	-0.06882652639496525	0.4204531771213907	2.094264155324731	-0.295970699796844	0.1231702696120303	-0.9480368002421582	2.094368757621065	2.094368757621067	0.174142175047434	-0.1743568461431739	0.2494388167632208	0.09285067961445327	0.02383044098334484	-0.01044419659151344	-0.003805398834711522	0.003150275285030768	0.001607487940029332	-0.01097263765390494	-0.4510121085681335	-0.001071217780668738	-0.001071217780669283	0.00952654341279436	0.001793043902120597	-0.02967207012150283	-0.01158952403075648	-0.4133778941751249	-0.05523489395878573	-0.06081857147631383	-0.3413144030402889	0.1405917769876682	-0.009917824381079292	0.5012286475664313	-7.513532037819923	15.30326808312366	-13.95140278934858	-54.61940656873242	-828.2665050976202	-0.1542569241714983	-0.02125041941362651	-3.094559043367165	1.423628423088586	0.5903845161305421	-0.4093769386297912	-1.983735136720706	-2.141615053202546	9.878637274386984	-0.07412639820364288	-0.07412639820364243	0.9393960631819477	-1.886771878320475	3.625432646975336	-0.8537456723669995	-1.777419733637122e-07	-8.588518348656e-07	6.908627938532379e-07	-3.876154062212059e-09	2.814870181086715e-07	-1.438951749967721e-06	-6.380094836460688e-08
0.55	-0.1013154827947949	-0.06886328409913132	0.4204431953809825	2.094274337762807	-0.296021785743845	0.1229885605388261	-0.9520675274040848	2.094355027289974	2.094355027289932	0.1742708352312936	-0.1743927305497387	0.249321884377797	0.09273253402339295	-0.006505259575540814	0.002757369743914538	0.001652187308116585	-0.001121246978191137	-0.008649229808726263	-0.02181389517557293	-0.3564762804160271	-0.001589193072969794	-0.001589193072970041	0.0147964810522107	-0.004982238512090643	0.00614508634811166	-0.008029284710140373	-0.4028360732909662	-0.05090675415835543	-0.06035927811009362	-0.3406165572983901	0.1344174945125566	-0.007192560692312706	0.4867231589008699	-8.765475001546113	14.06073063749538	-13.43558134838089	-48.07619026975862	-815.085401284054	-3.56830721362794	-0.02140737383616902	-2.978902393001582	1.218113081813231	0.4999778404468965	-0.4371403320619444	-0.07071153419271213	-0.02208322379219328	9.039612095798748	-0.02777296761940878	-0.0277729676193645	0.1093737764473199	0.5254090106063096	3.538708976090066	1.562570285500005	-6.182434656666964e-07	-1.548786904790946e-06	1.268102917172422e-06	3.29428702435388e-08	3.904772158518652e-07	-2.426031663346276e-06	-2.565549683172649e-07
0.5600000000000001	-0.1015281846503776	-0.06877808767133443	0.4204830959374202	2.094241584885872	-0.2960802531563814	0.1228050984659764	-0.955193184982455	2.094338689231386	2.094338689231293	0.1744099110239714	-0.1743767046937292	0.2495588939228964	0.09277032313578359	-0.03587403336852	0.01394662980107566	0.00617106053445541	-0.005436787717155554	0.0001311948329289745	-0.01132323758297156	-0.2699981918568697	-0.001592763280313571	-0.001592763280313523	0.01160966517666082	0.01217509641680837	0.0411163159831488	0.01959741665943933	-0.3922942524068075	-0.04657861435792514	-0.05989998474387369	-0.3399187115564914	0.128243212037445	-0.004467297003546097	0.4722176702353088	-10.00686324945463	12.8250492279133	-12.93079425811158	-41.77706336893574	-801.8729286479393	-6.944684409566144	-0.021560736376907	-2.901173690185864	1.021167167435218	0.4026419328326825	-0.4181806337782892	1.823693341361456	2.124767969651327	8.267089355797234	0.02875461878782847	0.02875461878782849	-0.7519546398112915	2.899751590301568	3.45624728005987	3.959546737425715	-1.464235494795824e-06	-1.191526895360093e-06	1.149011967657043e-06	2.677200827023559e-07	5.708948311714514e-07	-1.330290147176971e-06	-6.909292657978298e-07
